<?xml version="1.0" encoding="utf-8"?>
<!-- Generator: Adobe Illustrator 22.1.0, SVG Export Plug-In . SVG Version: 6.00 Build 0)  -->
<svg version="1.1" id="Calque_1" xmlns="http://www.w3.org/2000/svg" xmlns:xlink="http://www.w3.org/1999/xlink" x="0px" y="0px"
	 viewBox="0 0 32 32" style="enable-background:new 0 0 32 32;" xml:space="preserve">
<g>
	<path d="M30.9,28.7c0.3,0.3,0.4,0.7,0.4,1c0,0.4-0.1,0.8-0.4,1.1c-0.6,0.6-1.5,0.6-2.1,0L16,18.1L3.3,30.8c-0.6,0.6-1.5,0.6-2.1,0
		c-0.3-0.3-0.4-0.7-0.4-1.1c0-0.4,0.1-0.8,0.4-1L13.9,16L1.2,3.2C0.9,3,0.8,2.6,0.8,2.2c0-0.4,0.1-0.8,0.4-1.1
		c0.6-0.6,1.5-0.6,2.1,0L16,13.9L28.8,1.1c0.6-0.6,1.5-0.6,2.1,0c0.3,0.3,0.4,0.7,0.4,1.1c0,0.4-0.1,0.8-0.4,1L18.1,16L30.9,28.7z"
		/>
</g>
</svg>
